
<svg version="1.0" xmlns="http://www.w3.org/2000/svg"
 width="20px" height="20px" viewBox="0 0 1600.000000 1600.000000"
 preserveAspectRatio="xMidYMid meet">

<g transform="translate(0.000000,1600.000000) scale(0.100000,-0.100000)"
fill="#ffffff9d"  stroke="none">
<path d="M3830 15974 c0 -4 243 -804 540 -1778 l540 -1772 0 -1147 0 -1147
450 0 450 0 0 1204 0 1204 296 974 c162 535 396 1305 520 1710 123 406 224
743 224 748 0 7 -152 9 -452 8 l-452 -3 -193 -790 c-106 -434 -234 -958 -284
-1162 l-91 -373 -29 0 c-16 0 -29 2 -29 5 0 3 -99 397 -220 877 -121 480 -253
1002 -293 1161 l-72 287 -452 0 c-249 0 -453 -3 -453 -6z"/>
<path d="M7845 14554 c-210 -30 -323 -62 -460 -129 -273 -135 -464 -375 -538
-673 -21 -86 -21 -96 -24 -1367 -3 -1123 -2 -1293 12 -1388 22 -151 57 -264
120 -392 141 -286 381 -476 700 -557 81 -20 114 -23 320 -22 257 0 326 10 503
77 305 114 529 361 616 677 50 180 49 145 53 1455 5 1277 2 1368 -37 1516 -85
326 -338 608 -654 730 -136 53 -233 70 -416 74 -91 2 -178 1 -195 -1z m323
-784 c31 -13 68 -41 92 -67 75 -86 71 9 68 -1414 l-3 -1274 -26 -56 c-57 -122
-159 -181 -314 -183 -119 -1 -183 21 -245 84 -92 91 -85 -22 -85 1435 0 1394
-4 1304 57 1390 31 45 79 80 135 101 62 23 254 14 321 -16z"/>
<path d="M9830 12588 c0 -2020 -1 -1957 54 -2134 29 -91 102 -211 159 -261
149 -130 369 -156 622 -72 173 57 378 193 552 366 l113 112 0 -234 0 -235 395
0 395 0 0 2160 0 2160 -395 0 -395 0 0 -1640 0 -1640 -87 -88 c-195 -196 -379
-272 -511 -212 -34 15 -48 29 -65 67 l-22 48 -3 1733 -2 1732 -405 0 -405 0 0
-1862z"/>
<path d="M6165 9234 c-1269 -13 -2925 -60 -3158 -90 -848 -108 -1534 -783
-1641 -1616 -16 -124 -44 -521 -71 -1023 -53 -980 -59 -2190 -15 -3145 23
-488 67 -1168 85 -1310 95 -737 648 -1365 1385 -1569 152 -42 305 -61 574 -71
1505 -57 2102 -65 4586 -65 2271 0 2653 4 3800 40 1005 32 1059 36 1269 89
527 134 980 497 1230 985 123 241 183 473 201 776 5 88 16 259 24 380 53 753
70 1280 70 2185 0 902 -15 1385 -70 2165 -8 121 -19 292 -24 380 -23 391 -132
707 -352 1020 -82 118 -317 352 -435 435 -269 189 -566 307 -871 344 -166 21
-1105 54 -2177 77 -452 9 -3780 19 -4410 13z m-1044 -1373 l29 -29 0 -451 c0
-328 -3 -457 -12 -476 -25 -54 -30 -55 -503 -55 l-435 0 0 -2475 0 -2476 -25
-24 -24 -25 -471 0 c-503 0 -514 1 -540 49 -7 13 -10 813 -10 2485 l0 2466
-440 0 -441 0 -24 25 -25 24 0 469 c0 460 0 470 21 496 l20 26 1425 0 1426 0
29 -29z m3883 3 l26 -27 0 -838 c0 -462 2 -839 4 -839 3 0 34 22 70 49 126 95
245 154 382 188 100 24 285 21 389 -6 361 -94 589 -424 644 -933 15 -133 15
-2692 0 -2826 -13 -123 -40 -239 -79 -341 -88 -227 -281 -405 -505 -466 -83
-23 -296 -31 -393 -15 -141 23 -314 94 -445 184 l-67 46 0 -61 c0 -71 -10 -93
-50 -114 -25 -13 -95 -15 -456 -15 l-426 0 -34 34 -34 34 0 2957 0 2957 29 29
29 29 445 0 444 0 27 -26z m3493 -1410 c575 -85 916 -461 993 -1094 6 -50 10
-355 10 -742 l0 -657 -26 -20 c-26 -21 -33 -21 -766 -21 l-740 0 5 -502 c3
-431 6 -512 21 -568 22 -84 57 -134 113 -161 60 -29 196 -24 260 9 90 47 103
108 110 511 l5 303 28 32 28 31 429 3 c291 2 440 0 466 -8 70 -20 70 -21 64
-372 -3 -266 -7 -330 -26 -426 -88 -463 -322 -785 -673 -927 -287 -116 -691
-138 -998 -54 -396 108 -708 470 -808 940 -42 192 -43 246 -40 1454 3 1156 3
1160 25 1258 60 263 156 447 327 625 209 218 432 337 726 387 106 18 342 18
467 -1z m-6585 -123 l33 -29 5 -1755 c4 -1439 7 -1757 18 -1770 20 -24 77 -40
115 -32 75 17 173 82 285 189 l72 69 0 1639 c0 1782 -3 1680 55 1706 19 9 143
12 451 12 l425 0 24 -25 25 -24 0 -2206 0 -2206 -25 -24 -24 -25 -427 0 c-379
0 -429 2 -454 17 -43 25 -50 52 -50 194 l0 130 -76 -66 c-82 -72 -226 -170
-314 -215 -79 -40 -214 -85 -296 -100 -105 -19 -291 -9 -377 20 -239 81 -374
294 -407 645 -6 71 -10 767 -10 1964 l0 1853 34 34 34 34 426 0 426 0 32 -29z"/>
<path d="M9193 5529 c-29 -11 -78 -43 -108 -71 l-55 -50 0 -1302 0 -1303 58
-55 c77 -74 150 -102 249 -96 113 7 146 39 163 153 13 92 13 2412 0 2515 -19
143 -84 218 -196 226 -44 3 -72 -1 -111 -17z"/>
<path d="M12152 5520 c-54 -11 -99 -37 -124 -70 -41 -56 -50 -122 -55 -407
l-5 -273 256 0 256 0 0 238 c-1 426 -34 502 -222 516 -35 3 -83 1 -106 -4z"/>
</g>
</svg>
